# xmcd
#
# Track frame offsets:
#	150
#	16585
#	27780
#	41800
#	56327
#	71152
#	83432
#	97547
#	118322
#	133662
#	148775
#	162872
#	176677
#	187765
#	202002
#	216865
#
# Disc length: 3066 seconds
#
# Revision: 3
# Processed by: cddbd v1.5.2PL0 Copyright (c) Steve Scherf et al.
# Submitted via: EZCDAudioConverter 1.0.8.1
#
DISCID=d40bf810
DTITLE=鮑翠薇 - 鮑翠薇精選 Disc 1
DYEAR=1995
DGENRE=粤語流行曲
TTITLE0=我祇有期待
TTITLE1=紅豆相思
TTITLE2=頂天立地
TTITLE3=藍色的眼蓋
TTITLE4=有一日忘掉我
TTITLE5=話我知
TTITLE6=等等我
TTITLE7=讓我告訴你
TTITLE8=浮生三記
TTITLE9=祇對著一個影
TTITLE10=問你可知道
TTITLE11=一杯倆份分
TTITLE12=低語送君行
TTITLE13=賣心者
TTITLE14=海上生明月
TTITLE15=找著幸福
EXTD=
EXTT0=
EXTT1=
EXTT2=
EXTT3=
EXTT4=
EXTT5=
EXTT6=
EXTT7=
EXTT8=
EXTT9=
EXTT10=
EXTT11=
EXTT12=
EXTT13=
EXTT14=
EXTT15=
PLAYORDER=
